PathFileType	4	(X/Y/Z)	F:\MotionCapture\20160217\3\Generated_files\EMG_Fprce_test05-Dynamic.trc
DataRate	CameraRate	NumFrames	NumMarkers	Units	OrigDataRate	OrigDataStartFrame	OrigNumFrames
120.00	120.00	       8	39	mm	120.00	24	       188
Frame#	Time	Top.Head			Front.Head			Rear.Head			R.Shoulder			R.Offset			R.Elbow			R.Wrist			L.Shoulder			L.Elbow			L.Wrist			R.ASIS			L.ASIS			V.Sacral			R.Thigh			R.Knee			R.Shank			R.Ankle			R.Heel			R.Toe			L.Thigh			L.Knee			L.Shank			L.Ankle			L.Heel			L.Toe			R1			R2			R3			R4			R5			R6			R7			L1			L2			L3			L4			L5			L6			L7			V_Mid_ASIS			V_Pelvis_Origin			V_R.Hip_JC			V_L.Hip_JC			V_R.Knee_JC			V_L.Knee_JC			V_R.Ankle_JC			V_L.Ankle_JC			V_Mid_Hip			V_Mid_Shoulder			V_R.Hand			V_L.Hand			V_R.Toe_Offset_Static			V_L.Toe_Offset_Static			V_R.Toe_Offset			V_L.Toe_Offset			
		X1	Y1	Z1	X2	Y2	Z2	X3	Y3	Z3	X4	Y4	Z4	X5	Y5	Z5	X6	Y6	Z6	X7	Y7	Z7	X8	Y8	Z8	X9	Y9	Z9	X10	Y10	Z10	X11	Y11	Z11	X12	Y12	Z12	X13	Y13	Z13	X14	Y14	Z14	X15	Y15	Z15	X16	Y16	Z16	X17	Y17	Z17	X18	Y18	Z18	X19	Y19	Z19	X20	Y20	Z20	X21	Y21	Z21	X22	Y22	Z22	X23	Y23	Z23	X24	Y24	Z24	X25	Y25	Z25	X26	Y26	Z26	X27	Y27	Z27	X28	Y28	Z28	X29	Y29	Z29	X30	Y30	Z30	X31	Y31	Z31	X32	Y32	Z32	X33	Y33	Z33	X34	Y34	Z34	X35	Y35	Z35	X36	Y36	Z36	X37	Y37	Z37	X38	Y38	Z38	X39	Y39	Z39	

24	0.192	2221.99438	69.74979	1686.82068	2105.87451	74.72791	1609.02612	2326.43384	54.40605	1613.36316	2300.35938	250.29691	1379.32361	2400.84131	-39.76609	1253.87671	2458.33252	340.18500	1107.31018	2493.42456	393.10800	852.60724	2212.56201	-148.75938	1385.36731	2142.18164	-253.87425	1071.41418	1933.21228	-176.59769	940.77960	2241.61206	182.38280	914.49200	2235.56665	-106.86613	893.87982	2461.71362	38.13439	920.81335	2084.63989	159.33310	617.21173	2097.36768	207.02710	493.34579	2030.76794	142.71806	265.61038	2035.12268	212.09676	89.82735	2089.39844	147.13632	41.94038	1894.59229	190.51839	105.05975	2289.29224	-49.12457	565.38348	2435.79980	-92.85296	440.19376	2473.33081	-11.19579	306.59534	2636.39185	-64.92782	80.39921	2703.00220	-5.50322	75.43491	2502.75366	-63.32471	46.76099	1849.81494	174.58714	121.09870	1889.23816	156.71539	114.25031	1983.24780	124.28786	97.26722	2045.22156	119.34740	58.64778	2061.43506	192.10800	49.76405	1982.38135	219.37656	61.38351	1922.45642	228.16290	81.54400	2455.60962	-39.12811	39.84165	2489.02856	-23.63672	49.23916	2580.10132	21.68258	61.62323	2662.44360	24.74487	69.29031	2677.38647	-48.59516	67.63210	2607.23779	-76.91460	41.04532	2545.34546	-94.18866	43.68253	
25	0.200	2213.33228	70.71055	1685.38440	2097.38501	75.80331	1607.63538	2317.66797	55.65108	1612.00610	2292.46069	251.78799	1378.85059	2392.60986	-38.52485	1252.91394	2452.02368	340.86292	1107.29199	2488.87964	392.67856	852.69904	2203.56958	-147.05244	1383.84558	2131.82300	-251.41789	1069.81030	1921.01245	-173.13361	943.27612	2232.62915	184.35693	913.18030	2228.96753	-106.57020	893.03247	2453.52612	39.73775	919.49188	2076.78442	160.29166	615.16132	2089.82788	206.70116	491.30405	2019.10254	142.01790	265.55499	2018.45093	211.59575	89.00994	2074.35742	149.18570	41.30710	1876.89197	186.36281	105.33539	2280.67041	-49.61881	564.61646	2428.65039	-93.12872	439.16443	2467.69116	-11.79302	305.36493	2634.83984	-64.44678	81.69484	2702.02002	-6.30237	79.08217	2502.57886	-63.71385	46.67171	1835.66846	168.19978	123.28421	1873.71338	151.39027	115.27372	1969.34241	123.17575	97.86473	2031.17651	120.05960	58.39420	2044.75049	193.25110	48.86325	1964.64148	218.10016	60.56285	1904.10938	224.34290	80.57574	2455.75684	-39.25019	39.84825	2488.95825	-23.99645	49.34545	2579.37305	20.46163	63.48854	2661.55762	24.22129	72.39286	2676.52173	-49.03952	70.05226	2607.27222	-77.84068	42.81598	2544.77441	-94.69618	43.78662	
26	0.208	2203.95752	71.36776	1683.80688	2088.20068	76.16464	1605.62183	2308.70703	57.11364	1610.67542	2284.62158	252.33257	1378.09131	2384.65674	-37.23982	1251.72510	2445.95166	341.70139	1107.62622	2483.89648	392.90561	852.98035	2194.94409	-145.31155	1382.45837	2121.44336	-248.92702	1068.46521	1909.42603	-169.08357	944.76196	2224.36353	185.48473	911.98175	2219.91821	-104.82309	892.05548	2444.94189	41.76067	918.12653	2068.53931	160.80038	612.51611	2081.35718	206.26221	489.29480	2008.08459	141.48413	264.50458	2002.81055	212.19484	88.46539	2060.32959	151.48546	40.52825	1861.27002	179.82584	104.75871	2271.97559	-50.19806	563.53558	2420.83838	-93.88340	438.12567	2462.46362	-12.84220	305.08716	2633.98560	-65.67732	84.10259	2701.00220	-6.74460	82.91261	2502.36719	-64.00317	46.50370	1820.50574	159.53075	123.04149	1861.75549	145.73509	116.26842	1957.09204	121.73905	97.80036	2018.57227	120.87856	57.73698	2028.23962	193.11415	47.29377	1946.25110	214.95157	58.15607	1885.69336	217.04857	78.27785	2455.71436	-39.47234	39.78575	2488.71997	-24.48955	49.61370	2578.88330	19.75891	66.19427	2660.60645	23.43975	76.04345	2675.68433	-49.42071	73.02235	2606.73267	-78.85948	44.03298	2544.18018	-94.82071	43.92901																																																	2590.32056	-93.98405	21.58066	
27	0.217	2195.09668	72.49625	1682.35742	2079.18237	77.25601	1603.78687	2299.88159	58.45646	1609.63928	2276.87842	253.94263	1377.54712	2376.38184	-36.41883	1250.42200	2439.55786	342.75537	1107.78271	2478.48315	393.13150	853.72552	2186.95581	-143.39157	1380.68799	2111.70703	-246.44601	1067.07178	1898.77124	-165.96243	946.41144	2215.01855	187.53951	910.49042	2211.00415	-103.42074	892.18927	2435.89331	43.97454	916.67059	2059.93945	160.76012	610.74847	2073.35571	205.67938	487.18964	1997.53687	141.25052	263.52017	1988.87305	211.82851	87.03781	2047.75452	153.58699	39.44321	1848.61707	171.90251	103.89474	2261.71411	-50.97910	562.08356	2411.48755	-94.24755	436.91449	2455.22461	-13.38787	304.02451	2632.25659	-65.35240	86.60789	2699.38574	-7.33323	87.36191	2501.98779	-64.35989	46.35641	1808.23303	150.11263	122.98216	1850.41870	139.68326	116.05215	1946.56104	119.77763	97.21448	2007.53430	121.16427	56.71449	2014.51501	194.67865	46.38912	1931.21448	212.51001	56.52966	1869.39612	210.86536	76.07565	2455.64209	-39.75705	39.73650	2488.56689	-25.50924	50.14006	2577.53589	18.32135	68.05164	2659.11621	22.71318	79.03542	2674.27808	-49.71179	76.10312	2606.80054	-79.28351	45.31111	2545.23657	-95.20617	43.55753																																																	2582.86084	-107.99085	31.98631	
28	0.225	2186.07544	73.67397	1681.09521	2070.44873	77.48941	1601.34546	2290.95508	60.11359	1608.36768	2268.50000	254.92171	1377.19824	2368.00781	-35.21482	1248.92261	2433.06641	343.58530	1108.12231	2472.73413	393.39200	853.73816	2177.89136	-141.54503	1378.72168	2102.20117	-243.91547	1065.57776	1889.08044	-162.17900	947.46356	2205.62769	189.20615	909.22101	2202.62891	-101.83545	891.82892	2426.71533	46.01216	915.36151	2051.65234	161.44150	607.90234	2064.15723	204.94627	485.40002	1987.80078	139.55734	261.61673	1976.02344	210.87529	85.27477	2037.43091	155.66328	39.45542	1836.85876	163.62260	101.44904	2252.14600	-51.82899	560.38391	2401.65332	-94.66651	434.67877	2448.63550	-14.66014	302.53110	2631.34961	-66.62283	90.07322	2697.55762	-7.70797	91.99479	2501.27979	-64.90781	46.31515	1797.87769	140.17067	120.57958	1840.39856	132.43901	113.72511	1936.55908	117.42997	95.14720	1997.90686	121.33038	55.32491	2001.39746	194.09698	44.10455	1917.14331	208.44394	53.65533	1854.75513	203.48128	72.54730	2455.59692	-40.05917	39.70710	2487.97656	-26.24019	50.36986	2576.29639	17.89704	70.75196	2657.58057	21.74563	83.04540	2672.66089	-49.25312	79.54989	2605.86670	-79.68468	47.09050	2545.00952	-95.27701	43.70465																																																	2177.49072	58.00769	-4.96117	
29	0.233	2176.80298	74.35484	1679.30725	2061.66040	77.61189	1599.26184	2282.27637	61.88243	1607.16443	2261.10205	256.45120	1377.11230	2359.84619	-33.66220	1247.23035	2426.47119	344.56943	1108.81738	2467.00684	393.07501	854.21014	2169.79785	-139.77388	1377.52185	2093.25562	-241.18904	1063.85144	1878.28845	-159.04126	948.36035	2195.63574	190.87042	907.90930	2194.25488	-100.61063	891.58527	2417.14648	48.41855	913.88452	2042.24280	161.04361	605.14435	2054.45361	204.64716	483.03979	1979.16980	138.00714	259.43771	1964.31824	209.43207	82.76313	2028.95093	157.19255	39.78427	1825.08679	156.82510	95.25469	2241.13086	-52.05588	559.21051	2391.08960	-95.20682	432.62970	2440.86499	-15.60974	301.21359	2629.33667	-66.93761	93.15865	2695.73853	-8.24682	96.84572	2501.05688	-65.17638	46.28641	1789.50562	131.63487	115.71066	1832.48486	125.30115	109.09335	1928.71252	115.03013	92.03226	1990.14661	121.32664	53.13958	1992.52075	195.24341	43.24312	1907.05798	205.00731	50.04974	1843.34436	197.38802	67.60670	2455.36157	-40.29884	39.72490	2487.25464	-27.20030	50.83463	2574.10913	16.55156	73.00767	2655.51343	21.07358	87.55663	2671.40234	-50.30859	84.14761	2604.62744	-80.17239	48.99299	2544.02271	-96.01236	44.07010	
30	0.242	2167.69385	74.73746	1677.00940	2052.32837	77.54650	1597.14880	2273.60352	63.52858	1605.99683	2253.14844	257.17551	1376.57556	2351.38452	-32.27687	1245.43591	2420.14355	345.92850	1109.28650	2460.70825	393.07974	854.06085	2161.32788	-137.67316	1375.41516	2083.86646	-238.73569	1062.61206	1869.47095	-154.85031	948.40613	2186.43091	193.12314	906.77484	2184.68652	-98.75189	891.02295	2407.65723	50.93153	912.20813	2032.79016	160.46808	602.61627	2043.45972	203.69936	480.65109	1970.28040	136.41286	256.53894	1955.55481	208.09917	79.68642	2023.58630	157.54799	39.93489	1817.36731	150.56866	86.69626	2230.86499	-52.90778	557.75720	2380.28882	-96.17725	430.28964	2433.32446	-17.08652	299.14850	2627.33643	-67.26327	96.10644	2693.40063	-8.84643	102.23202	2500.92920	-65.74834	46.36657	1783.23267	124.36538	106.86310	1825.06506	119.38371	100.73476	1922.29602	112.59468	87.36137	1985.37012	119.94638	51.66967	1985.26953	194.58885	41.41993	1900.97913	201.93565	44.47418	1835.71423	191.95680	59.79122	2455.09473	-40.51183	39.75091	2486.69458	-27.62397	50.95708	2573.10083	16.29188	76.48423	2653.30371	20.15012	91.78603	2670.47437	-50.19576	90.86835	2603.64844	-80.81147	51.41291	2543.41162	-96.42749	44.49966	
31	0.250	2158.27588	75.48779	1675.28174	2045.23792	77.86922	1594.51563	2264.85815	65.49776	1604.46399	2244.64819	257.89063	1376.01050	2343.16870	-30.83173	1243.57385	2413.23926	346.73349	1109.29602	2453.91064	393.03665	853.98303	2152.88745	-136.09528	1373.51184	2074.84863	-235.89165	1060.52832	1859.26855	-151.31178	949.03729	2176.32617	195.06105	905.19556	2174.62402	-96.94618	890.03418	2397.67505	53.18780	910.24426	2021.90576	159.61751	599.81354	2032.78589	203.55281	478.41205	1964.06165	134.57251	252.63937	1950.23315	207.41856	76.41843	2021.53088	158.47458	40.20684	1813.59399	146.22237	71.88301	2217.91748	-54.02395	555.51129	2369.23486	-96.82307	427.41977	2425.35571	-18.42214	297.60355	2625.11011	-67.64043	100.08279	2690.93457	-9.44320	107.60233	2500.48779	-66.79395	46.58274	1780.67578	118.34166	90.63918	1818.54309	114.19331	86.21340	1919.31079	110.35530	81.28238	1984.39502	120.30004	50.82839	1984.08301	195.14149	40.71999	1897.90942	199.66518	36.89693	1832.94531	187.23827	45.85211	2454.90845	-41.30099	39.74557	2485.74341	-28.83883	51.31531	2570.99854	14.11477	78.67129	2650.88257	19.20539	96.43925	2668.69385	-50.94415	95.69977	2602.38550	-82.04719	53.98729	2543.12524	-97.49221	43.37057	
